<?xml version="1.0" encoding="UTF-8" standalone="no"?>
<svg
   height="512"
   viewBox="0 -960 10240 10240"
   width="512"
   fill="#5f6368"
   version="1.1"
   id="svg4"
   sodipodi:docname="construction.svg"
   inkscape:version="1.2.2 (732a01da63, 2022-12-09)"
   xmlns:inkscape="http://www.inkscape.org/namespaces/inkscape"
   xmlns:sodipodi="http://sodipodi.sourceforge.net/DTD/sodipodi-0.dtd"
   xmlns="http://www.w3.org/2000/svg"
   xmlns:svg="http://www.w3.org/2000/svg">
  <defs
     id="defs8" />
  <sodipodi:namedview
     id="namedview6"
     pagecolor="#ffffff"
     bordercolor="#000000"
     borderopacity="0.25"
     inkscape:showpageshadow="2"
     inkscape:pageopacity="0.0"
     inkscape:pagecheckerboard="0"
     inkscape:deskcolor="#d1d1d1"
     showgrid="false"
     inkscape:zoom="0.51822917"
     inkscape:cx="25.085427"
     inkscape:cy="33.768844"
     inkscape:window-width="1920"
     inkscape:window-height="991"
     inkscape:window-x="-9"
     inkscape:window-y="-9"
     inkscape:window-maximized="1"
     inkscape:current-layer="svg4" />
  <path
     d="m 2799.0457,1251.8415 q -349.2112,0 -598.8136,-248.6737 -249.6025,-248.67367 -249.6025,-597.88488 0,-349.21121 248.6737,-598.81364 248.6737,-249.60243 597.8849,-249.60243 349.2112,0 598.8136,248.67368 249.6025,248.67367 249.6025,597.88488 0,349.21121 -248.6737,598.81359 -248.6737,249.6025 -597.8849,249.6025 z m 5049.1669,2635.3373 q -290.2354,0 -493.4002,-203.1649 -203.1647,-203.1646 -203.1647,-493.4001 0,-290.2353 203.1647,-493.4002 203.1648,-203.1646 493.4002,-203.1646 290.2354,0 493.4001,203.1646 203.1648,203.1649 203.1648,493.4002 0,290.2355 -203.1648,493.4001 -203.1647,203.1649 -493.4001,203.1649 z M 1985.4579,8414.8508 V 5396.4027 h -464.3766 q -148.0201,0 -248.0932,-100.1893 -100.1893,-100.0731 -100.1893,-248.0932 V 2494.0489 q 0,-287.3331 204.674,-492.0071 204.5579,-204.5579 491.8909,-204.5579 h 1764.6311 q 202.5843,0 368.2507,104.4848 165.7824,104.4847 258.6578,290.2354 l 1578.8804,3227.4174 847.4874,-905.5344 q 69.6564,-81.2659 166.7112,-121.8988 96.9386,-40.633 204.79,-40.633 h 1497.6146 q 212.8006,0 361.8655,148.9488 148.9488,149.0649 148.9488,361.8655 v 1578.8805 q 0,150.9224 -98.68,249.6024 -98.6801,98.68 -249.6025,98.68 h -232.1883 v 1625.3183 q 0,148.02 -100.0731,248.0932 -100.1893,100.1892 -248.2093,100.1892 h -928.7533 q -148.02,0 -248.0932,-100.1892 -100.1892,-100.0732 -100.1892,-248.0932 V 5245.4803 l -580.4708,615.299 q -58.0471,58.0471 -121.8988,87.0706 -63.8518,29.0235 -147.7879,29.0235 H 5582.403 q -102.5111,0 -187.7242,-51.894 -85.2132,-52.0102 -135.3658,-145.466 L 3842.9643,2923.5972 v 5491.2536 q 0,148.02 -100.0731,248.0931 -100.1893,100.1893 -248.2093,100.1893 H 2333.7403 q -148.02,0 -248.0932,-100.1893 -100.1892,-100.0732 -100.1892,-248.0931 z"
     id="path2"
     style="fill:#000000;stroke-width:11.6094" />
</svg>
